<svg xmlns="http://www.w3.org/2000/svg" width="20" height="20" viewBox="0 0 24.594 24.594"><g transform="translate(0 0)"><path d="M271.548,68.713a1.442,1.442,0,1,0,1.442,1.442A1.442,1.442,0,0,0,271.548,68.713Z" transform="translate(-252.739 -64.322)" fill="#c1a564"/><path d="M268.477,70a6.057,6.057,0,1,0,6.057,6.057A6.064,6.064,0,0,0,268.477,70Zm0,9.937a3.88,3.88,0,1,1,3.88-3.88A3.884,3.884,0,0,1,268.477,79.939Z" transform="translate(-256.079 -63.762)" fill="#c1a564"/><path d="M275.206,90.246h-9.818A7.4,7.4,0,0,1,258,82.859V73.04a7.4,7.4,0,0,1,7.388-7.388h9.818a7.4,7.4,0,0,1,7.388,7.388v9.82A7.4,7.4,0,0,1,275.206,90.246Zm-9.818-22.28a5.079,5.079,0,0,0-5.074,5.074v9.82a5.078,5.078,0,0,0,5.074,5.073h9.818a5.079,5.079,0,0,0,5.074-5.073V73.04a5.08,5.08,0,0,0-5.074-5.074Z" transform="translate(-258 -65.652)" fill="#c1a564"/></g></svg>