<svg xmlns="http://www.w3.org/2000/svg" width="23.71" height="14.815" viewBox="0 0 23.71 14.815"><g transform="translate(0 0)"><path d="M355.8,122.512a3.357,3.357,0,0,1-1.409,2.838,4.782,4.782,0,0,1-1.523.73,6.6,6.6,0,0,1-1.846.25h-7.157V111.514H351.8a2.928,2.928,0,0,1,1.4.335,3.472,3.472,0,0,1,1.064.866,3.967,3.967,0,0,1,.678,1.209,4.053,4.053,0,0,1-.3,3.4,3.306,3.306,0,0,1-1.586,1.409,3.8,3.8,0,0,1,2.014,1.346A3.891,3.891,0,0,1,355.8,122.512Zm-9.056-8.534v3.735h3.839a1.71,1.71,0,0,0,1.242-.5,1.844,1.844,0,0,0,.512-1.378,1.906,1.906,0,0,0-.47-1.356,1.523,1.523,0,0,0-1.159-.5Zm6.155,7.991a2.187,2.187,0,0,0-.135-.762,2.123,2.123,0,0,0-.366-.636,1.683,1.683,0,0,0-.543-.427,1.5,1.5,0,0,0-.688-.157h-4.424v3.9h4.278a1.859,1.859,0,0,0,.741-.146,1.77,1.77,0,0,0,.595-.406,2,2,0,0,0,.4-.616A1.957,1.957,0,0,0,352.9,121.969Z" transform="translate(-343.866 -111.514)" fill="#c1a564"/><path d="M358.4,125.221a5.88,5.88,0,0,1-2.3-.435,5.2,5.2,0,0,1-2.881-2.921,5.584,5.584,0,0,1-.394-2.083,5.9,5.9,0,0,1,.384-2.133,5.18,5.18,0,0,1,2.881-2.963,5.9,5.9,0,0,1,2.334-.444,5.765,5.765,0,0,1,2.316.444,5.482,5.482,0,0,1,3.195,5.5,2.112,2.112,0,0,1-.051.4h-8.189a3.161,3.161,0,0,0,.3,1.112,2.731,2.731,0,0,0,1.5,1.354,2.859,2.859,0,0,0,1.011.181,3.119,3.119,0,0,0,1.526-.394,2.09,2.09,0,0,0,.982-1.041l2.324.647a4.724,4.724,0,0,1-1.87,1.991A5.794,5.794,0,0,1,358.4,125.221Zm2.75-6.388a2.823,2.823,0,0,0-.88-1.911,2.842,2.842,0,0,0-2.912-.526,2.652,2.652,0,0,0-.838.536,2.764,2.764,0,0,0-.6.83,2.9,2.9,0,0,0-.273,1.071Z" transform="translate(-340.228 -110.406)" fill="#c1a564"/><path d="M354.255,112.015h7.09v1.759h-7.09Z" transform="translate(-339.646 -111.311)" fill="#c1a564"/></g></svg>